#tb 0: 1/30
#tb 1: 1/44100
0,          0,          0,        1,   153600, 0xc4415716
1,          0,          0,     1024,     4096, 0xbc03e44a
1,       1024,       1024,      446,     1784, 0xd7ac844f
0,          1,          1,        1,   153600, 0x961d8352
1,       1470,       1470,     1024,     4096, 0x31fcd87a
1,       2494,       2494,      446,     1784, 0x117aad1d
0,          2,          2,        1,   153600, 0xbd098be9
1,       2940,       2940,     1024,     4096, 0x4fe44c6b
1,       3964,       3964,      446,     1784, 0x097966a5
0,          3,          3,        1,   153600, 0x76ac8161
1,       4410,       4410,     1024,     4096, 0xf0b44d66
1,       5434,       5434,      446,     1784, 0x0470b473
0,          4,          4,        1,   153600, 0xfbb76935
1,       5880,       5880,     1024,     4096, 0xd09c42ec
1,       6904,       6904,      446,     1784, 0xf5b34fef
0,          5,          5,        1,   153600, 0x8ade5221
1,       7350,       7350,     1024,     4096, 0x2b00fb63
1,       8374,       8374,      446,     1784, 0x25d2c5bd
0,          6,          6,        1,   153600, 0xb8fe4775
1,       8820,       8820,     1024,     4096, 0x68e86c9c
1,       9844,       9844,      446,     1784, 0x7b0b650b
0,          7,          7,        1,   153600, 0xb8470e4d
1,      10290,      10290,     1024,     4096, 0x8e3e46c2
1,      11314,      11314,      446,     1784, 0x72fc9937
0,          8,          8,        1,   153600, 0x4b39ffc5
1,      11760,      11760,     1024,     4096, 0x1b4b8ac8
1,      12784,      12784,      446,     1784, 0xee5a6549
0,          9,          9,        1,   153600, 0x8605d078
1,      13230,      13230,     1024,     4096, 0x21356e6a
1,      14254,      14254,      446,     1784, 0x79fadafb
0,         10,         10,        1,   153600, 0xce26cc65
1,      14700,      14700,     1024,     4096, 0xc61a55f0
1,      15724,      15724,      446,     1784, 0x64fe38e1
0,         11,         11,        1,   153600, 0x4f5e89c2
1,      16170,      16170,     1024,     4096, 0x200c5cf9
1,      17194,      17194,      446,     1784, 0x615d4a1d
0,         12,         12,        1,   153600, 0x66885f5d
1,      17640,      17640,     1024,     4096, 0xdb6307ae
1,      18664,      18664,      446,     1784, 0x5bc57615
0,         13,         13,        1,   153600, 0x53812e60
1,      19110,      19110,     1024,     4096, 0x2fec7686
1,      20134,      20134,      446,     1784, 0x2ba379e3
0,         14,         14,        1,   153600, 0x8a25fc56
1,      20580,      20580,     1024,     4096, 0xb1467a1a
1,      21604,      21604,      446,     1784, 0xb5fc193c
0,         15,         15,        1,   153600, 0xe5fabc52
1,      22050,      22050,     1024,     4096, 0x91a081a8
1,      23074,      23074,      446,     1784, 0x503fab5f
0,         16,         16,        1,   153600, 0x617396ff
1,      23520,      23520,     1024,     4096, 0x3646d9c9
1,      24544,      24544,      446,     1784, 0x44a492ef
0,         17,         17,        1,   153600, 0xd0f94782
1,      24990,      24990,     1024,     4096, 0x28ee30ee
1,      26014,      26014,      446,     1784, 0xce25962f
0,         18,         18,        1,   153600, 0xde8a30f4
1,      26460,      26460,     1024,     4096, 0xb320bc3d
1,      27484,      27484,      446,     1784, 0xc5cdf3a7
0,         19,         19,        1,   153600, 0xb6f8f35c
1,      27930,      27930,     1024,     4096, 0xc730a020
1,      28954,      28954,      446,     1784, 0x1248e492
0,         20,         20,        1,   153600, 0x369cd1c8
1,      29400,      29400,     1024,     4096, 0x07cf6407
1,      30424,      30424,      446,     1784, 0x155bbac8
0,         21,         21,        1,   153600, 0xc2c69272
1,      30870,      30870,     1024,     4096, 0x2182d0c9
1,      31894,      31894,      446,     1784, 0x18ff8185
0,         22,         22,        1,   153600, 0x985b795a
1,      32340,      32340,     1024,     4096, 0x202fd782
1,      33364,      33364,      446,     1784, 0x530d144b
0,         23,         23,        1,   153600, 0x43435cc5
1,      33810,      33810,     1024,     4096, 0x04cf576c
1,      34834,      34834,      446,     1784, 0x066955e5
0,         24,         24,        1,   153600, 0x663a5540
1,      35280,      35280,     1024,     4096, 0x128b32a6
1,      36304,      36304,      446,     1784, 0x20afd93f
0,         25,         25,        1,   153600, 0x8762418f
1,      36750,      36750,     1024,     4096, 0xf37b48e0
1,      37774,      37774,      446,     1784, 0x2d1c4cb7
0,         26,         26,        1,   153600, 0x0d5d4c85
1,      38220,      38220,     1024,     4096, 0x95311c5a
1,      39244,      39244,      446,     1784, 0x442f1e5b
0,         27,         27,        1,   153600, 0xa3b23130
1,      39690,      39690,     1024,     4096, 0xc4496e29
1,      40714,      40714,      446,     1784, 0x2f2cba6d
0,         28,         28,        1,   153600, 0xe3df4c77
1,      41160,      41160,     1024,     4096, 0x4902a175
1,      42184,      42184,      446,     1784, 0x8fd558f9
0,         29,         29,        1,   153600, 0x08a353f5
1,      42630,      42630,     1024,     4096, 0x3f935de2
1,      43654,      43654,      446,     1784, 0x8f2770b7
0,         30,         30,        1,   153600, 0xe97471df
1,      44100,      44100,     1024,     4096, 0x7113d8c7
1,      45124,      45124,      446,     1784, 0xcb9f2b5b
0,         31,         31,        1,   153600, 0x03fb797c
1,      45570,      45570,     1024,     4096, 0x361b35ca
1,      46594,      46594,      446,     1784, 0x0fca63cf
0,         32,         32,        1,   153600, 0x4ba7a074
1,      47040,      47040,     1024,     4096, 0x05afab3c
1,      48064,      48064,      446,     1784, 0x3e660396
0,         33,         33,        1,   153600, 0x4a73cdca
1,      48510,      48510,     1024,     4096, 0x14b703ea
1,      49534,      49534,      446,     1784, 0xfdddfb68
0,         34,         34,        1,   153600, 0xf0d3090b
1,      49980,      49980,     1024,     4096, 0xec4f1ec0
1,      51004,      51004,      446,     1784, 0x19a6592d
0,         35,         35,        1,   153600, 0xb2bc2edc
1,      51450,      51450,     1024,     4096, 0x57aac7e5
1,      52474,      52474,      446,     1784, 0x429db17d
0,         36,         36,        1,   153600, 0x17807153
1,      52920,      52920,     1024,     4096, 0x4b6dea29
1,      53944,      53944,      446,     1784, 0xe18d80a3
0,         37,         37,        1,   153600, 0x5f128d43
1,      54390,      54390,     1024,     4096, 0x4392bff9
1,      55414,      55414,      446,     1784, 0xe80652e9
0,         38,         38,        1,   153600, 0x21d2d9ea
1,      55860,      55860,     1024,     4096, 0x0eb5086e
1,      56884,      56884,      446,     1784, 0xf4fbcb36
0,         39,         39,        1,   153600, 0x5ccb03bb
1,      57330,      57330,     1024,     4096, 0x1124ded7
1,      58354,      58354,      446,     1784, 0x2456acc4
0,         40,         40,        1,   153600, 0x11fb3bfd
1,      58800,      58800,     1024,     4096, 0x6e55d6ed
1,      59824,      59824,      446,     1784, 0x27765f0f
0,         41,         41,        1,   153600, 0xcc505a79
1,      60270,      60270,     1024,     4096, 0xb212547b
1,      61294,      61294,      446,     1784, 0x16e416e0
0,         42,         42,        1,   153600, 0x2d0a83ce
1,      61740,      61740,     1024,     4096, 0xc4ceebb9
1,      62764,      62764,      446,     1784, 0xc5fc73a7
0,         43,         43,        1,   153600, 0x1a06bc88
1,      63210,      63210,     1024,     4096, 0xfa489766
1,      64234,      64234,      446,     1784, 0xa4cb13e8
0,         44,         44,        1,   153600, 0x9867eef0
1,      64680,      64680,     1024,     4096, 0xf615b4fa
1,      65704,      65704,      446,     1784, 0x31f5c625
0,         45,         45,        1,   153600, 0xa15f2aca
1,      66150,      66150,     1024,     4096, 0x366e2f60
1,      67174,      67174,      446,     1784, 0xdeeb25bf
0,         46,         46,        1,   153600, 0x32b851bd
1,      67620,      67620,     1024,     4096, 0x902b6cea
1,      68644,      68644,      446,     1784, 0x1ba533e7
0,         47,         47,        1,   153600, 0x87867905
1,      69090,      69090,     1024,     4096, 0xd1614436
1,      70114,      70114,      446,     1784, 0x7fa77fb1
0,         48,         48,        1,   153600, 0x2cc0b15d
1,      70560,      70560,     1024,     4096, 0xc19677bd
1,      71584,      71584,      446,     1784, 0x3c38962b
0,         49,         49,        1,   153600, 0xd657e000
1,      72030,      72030,     1024,     4096, 0xa1cdc61f
1,      73054,      73054,      446,     1784, 0x72671a59
0,         50,         50,        1,   153600, 0x6c99f40d
1,      73500,      73500,     1024,     4096, 0xf7bec61f
1,      74524,      74524,      446,     1784, 0x5c6cd72d
0,         51,         51,        1,   153600, 0x5481fe7b
1,      74970,      74970,     1024,     4096, 0x848665bd
1,      75994,      75994,      446,     1784, 0xac1a451b
0,         52,         52,        1,   153600, 0x2a2625a9
1,      76440,      76440,     1024,     4096, 0xc31ae4b3
1,      77464,      77464,      446,     1784, 0xa261c72f
0,         53,         53,        1,   153600, 0x51e040c0
1,      77910,      77910,     1024,     4096, 0x0ef00bd8
1,      78934,      78934,      446,     1784, 0x850e4eed
0,         54,         54,        1,   153600, 0xfa6b598f
1,      79380,      79380,     1024,     4096, 0x92a0ea8b
1,      80404,      80404,      446,     1784, 0xacd9a699
0,         55,         55,        1,   153600, 0xac4f6100
1,      80850,      80850,     1024,     4096, 0x3d2a0fa4
1,      81874,      81874,      446,     1784, 0x63cf5def
0,         56,         56,        1,   153600, 0x0a7077f0
1,      82320,      82320,     1024,     4096, 0x214abb7b
1,      83344,      83344,      446,     1784, 0x6629614b
0,         57,         57,        1,   153600, 0xd06867ac
1,      83790,      83790,     1024,     4096, 0x925435bc
1,      84814,      84814,      446,     1784, 0xd0414b79
0,         58,         58,        1,   153600, 0xc6db8074
1,      85260,      85260,     1024,     4096, 0x4fee1484
1,      86284,      86284,      446,     1784, 0x37d7f987
0,         59,         59,        1,   153600, 0xc2d473f8
1,      86730,      86730,     1024,     4096, 0xb430bb33
1,      87754,      87754,      446,     1784, 0x33596609
0,         60,         60,        1,   153600, 0x8eb77a6b
1,      88200,      88200,     1024,     4096, 0xac28f121
1,      89224,      89224,      446,     1784, 0x3637b3f5
0,         61,         61,        1,   153600, 0x158f6183
1,      89670,      89670,     1024,     4096, 0x42549aa7
1,      90694,      90694,      446,     1784, 0xef15abaf
0,         62,         62,        1,   153600, 0xf39d5a20
1,      91140,      91140,     1024,     4096, 0x03269ad9
1,      92164,      92164,      446,     1784, 0xa7f2a2c5
0,         63,         63,        1,   153600, 0x1ac95733
1,      92610,      92610,     1024,     4096, 0xb3fe65a8
1,      93634,      93634,      446,     1784, 0xcb37b40b
0,         64,         64,        1,   153600, 0xd3d34a77
1,      94080,      94080,     1024,     4096, 0x9bbc4e0a
1,      95104,      95104,      446,     1784, 0xb39c4f37
0,         65,         65,        1,   153600, 0xc6163675
1,      95550,      95550,     1024,     4096, 0x5aa2d187
1,      96574,      96574,      446,     1784, 0xe20b5fa9
0,         66,         66,        1,   153600, 0x6e393730
1,      97020,      97020,     1024,     4096, 0x2c7c9305
1,      98044,      98044,      446,     1784, 0x787b5c37
0,         67,         67,        1,   153600, 0x0f9a183d
1,      98490,      98490,     1024,     4096, 0xee40abe9
1,      99514,      99514,      446,     1784, 0xec3eb855
0,         68,         68,        1,   153600, 0xd60b184e
1,      99960,      99960,     1024,     4096, 0x902d3574
1,     100984,     100984,      446,     1784, 0xe6ce6e51
0,         69,         69,        1,   153600, 0x6f2510c5
1,     101430,     101430,     1024,     4096, 0xa6c70aaf
1,     102454,     102454,      446,     1784, 0x386953cf
0,         70,         70,        1,   153600, 0xc95be7e7
1,     102900,     102900,     1024,     4096, 0xfa4640a8
1,     103924,     103924,      446,     1784, 0xf23ab7f3
0,         71,         71,        1,   153600, 0x24d1cd86
1,     104370,     104370,     1024,     4096, 0x7b532631
1,     105394,     105394,      446,     1784, 0x283cca87
0,         72,         72,        1,   153600, 0xe2d9c797
1,     105840,     105840,     1024,     4096, 0xffbd1c3e
1,     106864,     106864,      446,     1784, 0x4fc9a8ff
0,         73,         73,        1,   153600, 0x1a3fc5cb
1,     107310,     107310,     1024,     4096, 0x20fd4a16
1,     108334,     108334,      446,     1784, 0xbb05cc43
0,         74,         74,        1,   153600, 0x8c39db55
1,     108780,     108780,     1024,     4096, 0xb3e0805b
1,     109804,     109804,      446,     1784, 0x1f1cb1cb
0,         75,         75,        1,   153600, 0x9fcbdc5c
1,     110250,     110250,     1024,     4096, 0xf3c46bb2
1,     111274,     111274,      446,     1784, 0xe9f44011
0,         76,         76,        1,   153600, 0xa6d7f9fb
1,     111720,     111720,     1024,     4096, 0x94f9f101
1,     112744,     112744,      446,     1784, 0xd6238707
0,         77,         77,        1,   153600, 0xf67fe901
1,     113190,     113190,     1024,     4096, 0xa779b40f
1,     114214,     114214,      446,     1784, 0x4bfebfaf
0,         78,         78,        1,   153600, 0x8d791570
1,     114660,     114660,     1024,     4096, 0xaf10e8df
1,     115684,     115684,      446,     1784, 0x151762a1
0,         79,         79,        1,   153600, 0x52551cc9
1,     116130,     116130,     1024,     4096, 0x9448a38a
1,     117154,     117154,      446,     1784, 0xd4f1bf0d
0,         80,         80,        1,   153600, 0x9d1d49f6
1,     117600,     117600,     1024,     4096, 0x9fbac05a
1,     118624,     118624,      446,     1784, 0xbd04d389
0,         81,         81,        1,   153600, 0xd5183e63
1,     119070,     119070,     1024,     4096, 0x085f2180
1,     120094,     120094,      446,     1784, 0xb36585cf
0,         82,         82,        1,   153600, 0x13bc58a3
1,     120540,     120540,     1024,     4096, 0x97cff1c9
1,     121564,     121564,      446,     1784, 0x666d344b
0,         83,         83,        1,   153600, 0x155e6a6b
1,     122010,     122010,     1024,     4096, 0xaa50b1b7
1,     123034,     123034,      446,     1784, 0xdbae3b1d
0,         84,         84,        1,   153600, 0x7b448c2d
1,     123480,     123480,     1024,     4096, 0xbedb6071
1,     124504,     124504,      446,     1784, 0x705febf2
0,         85,         85,        1,   153600, 0xe34ba3dc
1,     124950,     124950,     1024,     4096, 0xc794b8ba
1,     125974,     125974,      446,     1784, 0x1be58ced
0,         86,         86,        1,   153600, 0x1442ea63
1,     126420,     126420,     1024,     4096, 0x1f040d78
1,     127444,     127444,      446,     1784, 0xf1f78247
0,         87,         87,        1,   153600, 0xe85d60aa
1,     127890,     127890,     1024,     4096, 0x4a7d964b
1,     128914,     128914,      446,     1784, 0x2a179edb
0,         88,         88,        1,   153600, 0x292a33ca
1,     129360,     129360,     1024,     4096, 0x7659498d
1,     130384,     130384,      446,     1784, 0x752dbdf7
0,         89,         89,        1,   153600, 0x2d09fa36
1,     130830,     130830,     1024,     4096, 0xe158f23d
1,     131854,     131854,      446,     1784, 0x98fe53f1
0,         90,         90,        1,   153600, 0x0938d169
1,     132300,     132300,     1024,     4096, 0x8eb2303a
1,     133324,     133324,      446,     1784, 0x13251fab
0,         91,         91,        1,   153600, 0xc40498d4
1,     133770,     133770,     1024,     4096, 0xc11878b5
1,     134794,     134794,      446,     1784, 0xf5258afb
0,         92,         92,        1,   153600, 0x5fef991e
1,     135240,     135240,     1024,     4096, 0x5f775158
1,     136264,     136264,      446,     1784, 0x992ab241
0,         93,         93,        1,   153600, 0xe24a97d5
1,     136710,     136710,     1024,     4096, 0xff0a896b
1,     137734,     137734,      446,     1784, 0x98ac82f3
0,         94,         94,        1,   153600, 0x27c2b00d
1,     138180,     138180,     1024,     4096, 0xdd852c58
1,     139204,     139204,      446,     1784, 0x4c79946b
0,         95,         95,        1,   153600, 0xed2eb8d9
1,     139650,     139650,     1024,     4096, 0x7887773f
1,     140674,     140674,      446,     1784, 0x92f98d83
0,         96,         96,        1,   153600, 0x1dade4c3
1,     141120,     141120,     1024,     4096, 0x701c0286
1,     142144,     142144,      446,     1784, 0xb235866f
0,         97,         97,        1,   153600, 0x7372d0c6
1,     142590,     142590,     1024,     4096, 0xf0e2590a
1,     143614,     143614,      446,     1784, 0x56859729
0,         98,         98,        1,   153600, 0x355406ea
1,     144060,     144060,     1024,     4096, 0x3874a89d
1,     145084,     145084,      446,     1784, 0xf768b70b
0,         99,         99,        1,   153600, 0x18d40900
1,     145530,     145530,     1024,     4096, 0x517b0cac
1,     146554,     146554,      446,     1784, 0x43919d21
0,        100,        100,        1,   153600, 0x00334254
1,     147000,     147000,     1024,     4096, 0x075af55b
1,     148024,     148024,      446,     1784, 0x2205bebd
0,        101,        101,        1,   153600, 0x636a0cfb
1,     148470,     148470,     1024,     4096, 0x1e2cc783
1,     149494,     149494,      446,     1784, 0xf44e7ea1
0,        102,        102,        1,   153600, 0x1841f073
1,     149940,     149940,     1024,     4096, 0x81dbf6c1
1,     150964,     150964,      446,     1784, 0x65354e0f
0,        103,        103,        1,   153600, 0x5802b5d8
1,     151410,     151410,     1024,     4096, 0x4ac3e60f
1,     152434,     152434,      446,     1784, 0xfbf6316b
0,        104,        104,        1,   153600, 0xd5957ede
1,     152880,     152880,     1024,     4096, 0x3b9fcf3b
1,     153904,     153904,      446,     1784, 0x5feb74b1
0,        105,        105,        1,   153600, 0x7a232af8
1,     154350,     154350,     1024,     4096, 0x8cd7c28d
1,     155374,     155374,      446,     1784, 0x6da68bff
0,        106,        106,        1,   153600, 0xa1baedb2
1,     155820,     155820,     1024,     4096, 0x17e43327
1,     156844,     156844,      446,     1784, 0xcf4e3549
0,        107,        107,        1,   153600, 0xca6c6bff
1,     157290,     157290,     1024,     4096, 0xfc08f8ad
1,     158314,     158314,      446,     1784, 0x210fc627
0,        108,        108,        1,   153600, 0x78ae26ed
1,     158760,     158760,     1024,     4096, 0xcd0d48b8
1,     159784,     159784,      446,     1784, 0x1c2c9e19
0,        109,        109,        1,   153600, 0xbdcc9b3e
1,     160230,     160230,     1024,     4096, 0x48874770
1,     161254,     161254,      446,     1784, 0x4b079283
0,        110,        110,        1,   153600, 0xc07deee5
1,     161700,     161700,     1024,     4096, 0x3b800c02
1,     162724,     162724,      446,     1784, 0xdf0edaa3
0,        111,        111,        1,   153600, 0x21812c84
1,     163170,     163170,     1024,     4096, 0x1c2b4ed2
1,     164194,     164194,      446,     1784, 0x95ab2bc7
0,        112,        112,        1,   153600, 0x75ad875e
1,     164640,     164640,     1024,     4096, 0xf8600cc2
1,     165664,     165664,      446,     1784, 0x3cb6c5ed
0,        113,        113,        1,   153600, 0xb5eacb36
1,     166110,     166110,     1024,     4096, 0x0bbe3af0
1,     167134,     167134,      446,     1784, 0xa819b71b
0,        114,        114,        1,   153600, 0x606a04f2
1,     167580,     167580,     1024,     4096, 0x7e012a8c
1,     168604,     168604,      446,     1784, 0xab245be3
0,        115,        115,        1,   153600, 0x3f251c90
1,     169050,     169050,     1024,     4096, 0xc7eefb97
1,     170074,     170074,      446,     1784, 0xf66a729b
0,        116,        116,        1,   153600, 0x402841e1
1,     170520,     170520,     1024,     4096, 0x5956bcb4
1,     171544,     171544,      446,     1784, 0x803eeecc
0,        117,        117,        1,   153600, 0xa3e22a95
1,     171990,     171990,     1024,     4096, 0x282070f1
1,     173014,     173014,      446,     1784, 0x3907cb49
0,        118,        118,        1,   153600, 0xea96547b
1,     173460,     173460,     1024,     4096, 0xcf351e70
1,     174484,     174484,      446,     1784, 0xf8c38911
0,        119,        119,        1,   153600, 0x7c0a4a01
1,     174930,     174930,     1024,     4096, 0x5d4c02ee
1,     175954,     175954,      446,     1784, 0x6d815dcd
